<svg xmlns="http://www.w3.org/2000/svg" viewBox="0 0 200 225">
  <path d="M199.4 213.5l-10-58.3c-1-6.3-5.5-11.3-11.6-13.2l-26.8-8a29.9 29.9 0 0 0-20.8-26 54.7 54.7 0 0 0 13-26h2.1c5.4 0 9.8-4.4 9.8-9.8v-5c0-3.6-2-6.9-5-8.6v-12a3.3 3.3 0 0 0-6.7 0v13.5a20.3 20.3 0 0 0-5.9 2V35.6c0-7.4-6-13.3-13.3-13.3h-9c-3.2 0-6.3 1-8.7 3l-.9.8A9.2 9.2 0 0 1 94 26l-1-.8c-2.4-2-5.4-3-8.6-3h-9c-7.4 0-13.4 6-13.4 13.3V62a17 17 0 0 0-1.5-.7c-1.6-.7-3-1-4.4-1.3V26c0-10.6 8.7-19.3 19.4-19.3H124c10.6 0 19.3 8.7 19.3 19.3v5.2a3.3 3.3 0 1 0 6.6 0V26A26 26 0 0 0 124 0H75.6a26 26 0 0 0-26 26v32.6c-3 1.7-5 5-5 8.6v5c0 5.4 4.4 9.8 9.7 9.8h2.1a52.1 52.1 0 0 0 13 26 30 30 0 0 0-20.7 26l-26.9 8a16.6 16.6 0 0 0-11.6 13.2l-4 23.7a3.3 3.3 0 1 0 6.4 1l4-23.6a10 10 0 0 1 7.1-8l24.9-7.4v6.5a16.5 16.5 0 0 0-13.6 14.8L32.5 193a8.4 8.4 0 0 0 8.4 9H45a3.3 3.3 0 1 0 0-6.5h-4.1a1.8 1.8 0 0 1-1.8-2l2.4-30.8c0-.9.3-1.8.6-2.7a10 10 0 0 1 9.3-6.3h.6a9.9 9.9 0 0 1 10 9l2.4 30.8a1.8 1.8 0 0 1-1.8 2h-4a3.3 3.3 0 1 0 0 6.6h4a8.4 8.4 0 0 0 8.4-9l-2.4-30.9A16.3 16.3 0 0 0 55 147.3V139l11.4-3.4a2747.5 2747.5 0 0 1 30.3 77.2 3.3 3.3 0 0 0 6.2 0 4276.2 4276.2 0 0 1 23.2-60.3c4-10 6-14.8 7-17l11.4 3.5v19.4a17 17 0 1 0 6.6 0V141l24.8 7.5a10 10 0 0 1 7 8l10 58.2c.2 1 0 1.9-.7 2.6-.6.8-1.5 1.2-2.5 1.2H9.9c-1 0-2-.4-2.5-1.2-.7-.7-1-1.6-.8-2.6l3.3-19.2a3.3 3.3 0 1 0-6.5-1.2L.1 213.5A9.8 9.8 0 0 0 10 225h179.8a9.8 9.8 0 0 0 9.7-11.5zm-56-146.7c1.8-.4 3.2-.4 3.2-.4.6 0 1.2-.1 1.7-.4l.2 1.2v5c0 1.8-1.4 3.2-3.2 3.2h-1.8zm-87.3 8.6h-1.9a3.2 3.2 0 0 1-3.1-3.2v-5c0-.4 0-.8.2-1.2.5.3 1 .4 1.6.4 0 0 1.4 0 3.2.4zm6.6 3.7v-8.7a4.6 4.6 0 0 0 6-4.4V35.6c0-3.7 3-6.7 6.6-6.7h9.1a7 7 0 0 1 4.5 1.5l.9.8a15.8 15.8 0 0 0 20 0l.9-.8A7 7 0 0 1 115 29h9.1c3.7 0 6.7 3 6.7 6.7V66a4.6 4.6 0 0 0 6 4.4v8.7c0 4.8-3.3 14.1-9.5 22a43.4 43.4 0 0 1-8.2 8 32.1 32.1 0 0 1-39.1-.2 43.5 43.5 0 0 1-8-7.8 42.6 42.6 0 0 1-9.4-22zm58.7 53.2l-21.6 16.1-21.6-16c2.1-2.8 3.3-6.3 3.3-9.4v-5.3a38 38 0 0 0 36.5 0v5.3c0 3 1.2 6.6 3.4 9.3zm-48.7-3.7a9 9 0 0 0-5.8-.2l-11.4 3.4c2-9.4 9.6-17 19.4-18.4v9.6c0 2-.9 4.2-2.2 5.6zm9 26.5a981.6 981.6 0 0 0-.7-1.5l-.4-1.2v-.1l-1.5-3.6v-.2l-.5-1-.1-.3-.4-.9v-.3a1327.3 1327.3 0 0 0-1.1-2.5l-.3-.7v-.2a52.4 52.4 0 0 1-1.2-2.8l-.6-1.3-.3-.6 18.6 13.9-7.7 3.3-3.3 1.4-.6-1.4zm7.8 20.2a3426.6 3426.6 0 0 0-5-12.7l1.3-.5 5 5.8zM99.8 202c0-.2-.2-.3-.3-.5L94 187l3.1-16.9h5.3l3.1 16.9-5.7 15zm3.9-38.3h-7.8l-3.7-4.3 7.6-3.3 7.6 3.3zm8.3 6.5l-2 5-1.3-7.3 5-5.8 1.3.5-3 7.6zm12.6-31.7l-.5 1.2v.2l-.6 1.2v.1l-.5 1.2v.2l-.2.3-.2.5-.3.7v.2l-.8 1.7v.3l-.4.9-.2.3-.4 1v.3l-1.5 3.4v.2l-.5 1.2v.2l-.6 1.2-.5 1.5-3.3-1.4-7.8-3.3 18.6-14c0 .3-.2.5-.3.7zm8-10a9 9 0 0 0-5.7.1 8.7 8.7 0 0 1-2.3-5.6v-9.6c9.9 1.4 17.6 8.9 19.5 18.5zm25.6 46.6a10.5 10.5 0 1 1-21 0 10.5 10.5 0 0 1 21 0z"/>
</svg>