<?xml version="1.0" encoding="UTF-8" standalone="no"?>
<svg
   xmlns:dc="http://purl.org/dc/elements/1.1/"
   xmlns:cc="http://creativecommons.org/ns#"
   xmlns:rdf="http://www.w3.org/1999/02/22-rdf-syntax-ns#"
   xmlns:svg="http://www.w3.org/2000/svg"
   xmlns="http://www.w3.org/2000/svg"
   xmlns:sodipodi="http://sodipodi.sourceforge.net/DTD/sodipodi-0.dtd"
   xmlns:inkscape="http://www.inkscape.org/namespaces/inkscape"
   height="225"
   viewBox="0 -102 150.00146 168.75"
   width="200"
   version="1.1"
   id="svg4"
   sodipodi:docname="advantages-icon-1.svg"
   inkscape:version="0.92.1 r15371">
  <metadata
     id="metadata10">
    <rdf:RDF>
      <cc:Work
         rdf:about="">
        <dc:format>image/svg+xml</dc:format>
        <dc:type
           rdf:resource="http://purl.org/dc/dcmitype/StillImage" />
        <dc:title></dc:title>
      </cc:Work>
    </rdf:RDF>
  </metadata>
  <defs
     id="defs8" />
  <sodipodi:namedview
     pagecolor="#ffffff"
     bordercolor="#666666"
     borderopacity="1"
     objecttolerance="10"
     gridtolerance="10"
     guidetolerance="10"
     inkscape:pageopacity="0"
     inkscape:pageshadow="2"
     inkscape:window-width="1920"
     inkscape:window-height="1017"
     id="namedview6"
     showgrid="false"
     inkscape:zoom="1.9555922"
     inkscape:cx="61.610637"
     inkscape:cy="20.645866"
     inkscape:window-x="-8"
     inkscape:window-y="-8"
     inkscape:window-maximized="1"
     inkscape:current-layer="svg4"
     fit-margin-top="0"
     fit-margin-left="0"
     fit-margin-right="0"
     fit-margin-bottom="0"
     units="px" />
  <path
     d="M 148.68767,-68.751474 75.906532,-101.2951 c -0.576784,-0.25864 -1.23482,-0.25864 -1.811604,0 L 44.58742,-88.101183 c -1.11809,0.500109 -1.619343,1.8116 -1.119235,2.930837 0.500109,1.119236 1.812749,1.62049 2.931983,1.120381 l 28.59999,-12.7888 26.182992,11.707328 v 16.344491 c -13.895445,-5.081191 -25.594765,-5.466855 -26.121194,-5.481737 -0.0412,-9.09e-4 -0.0824,-9.09e-4 -0.123596,0 -0.564195,0.01491 -13.983565,0.457764 -29.179063,6.663909 -6.061948,2.474218 -11.599755,5.554972 -16.458927,9.15529 -0.363923,0.270082 -0.629426,0.640873 -0.773622,1.057437 L 7.6549691,-66.725865 36.915285,-79.809919 c 1.119234,-0.500109 1.620487,-1.811609 1.119234,-2.930837 -0.500107,-1.119236 -1.812748,-1.62049 -2.930838,-1.120381 L 1.3126402,-68.751474 C 0.51384073,-68.394419 0,-67.600192 0,-66.725865 c 0,0.875473 0.51384073,1.668555 1.3126402,2.025609 L 28.402006,-52.58551 v 10.625854 c 0,1.225664 0.994495,2.219019 2.219015,2.219019 1.225664,0 2.219014,-0.993355 2.219014,-2.219019 V -53.97712 c 0,-9.09e-4 0,-0.0036 0,-0.0045 v -1.555254 c 4.344187,-3.101355 9.249134,-5.776982 14.59697,-7.959381 13.90689,-5.679709 26.574381,-6.294264 27.564298,-6.334318 0.969316,0.03782 12.800243,0.603109 26.181847,5.785 v 22.050527 c -3.244405,0.959018 -5.620205,3.966527 -5.620205,7.518782 0,3.26386 2.00501,6.067669 4.848875,7.245269 l -1.551829,4.084401 c -10.125749,1.742899 -18.143497,4.141582 -23.859833,7.146811 -13.166455,-6.91683 -35.214689,-8.871485 -42.158979,-9.330394 v -6.224455 c 0,-1.22566 -0.994494,-2.219004 -2.219014,-2.219004 -1.225664,0 -2.219014,0.993344 -2.219014,2.219004 v 8.321019 c 0,1.186755 0.934984,2.164082 2.121739,2.216727 0.289536,0.01255 29.128709,1.359565 43.377777,9.474585 0.33989,0.19341 0.71869,0.290683 1.098636,0.290683 0.3788,0 0.7576,-0.09727 1.098634,-0.291828 4.790508,-2.730564 11.973979,-5.046856 20.919845,-6.761184 l -1.3115,3.453838 c -0.259782,0.682064 -0.167082,1.447682 0.2472,2.048491 0.414273,0.599673 1.097491,0.959019 1.826482,0.959019 h 11.242696 c 0.73013,0 1.4122,-0.359346 1.82648,-0.959019 0.41428,-0.600809 0.50698,-1.366427 0.24833,-2.048491 l -2.00614,-5.279175 c 6.03791,-0.691228 10.33403,-0.885773 10.38324,-0.888064 1.18676,-0.05145 2.12288,-1.028827 2.12288,-2.216727 v -8.321019 c 0,-1.224516 -0.99449,-2.219006 -2.21901,-2.219006 -1.22567,0 -2.21901,0.99449 -2.21901,2.219006 v 6.227891 c -2.07139,0.139618 -5.51378,0.415418 -9.69431,0.920109 l -1.07232,-2.823264 c 2.84272,-1.1776 4.84887,-3.981409 4.84887,-7.245269 0,-3.5534 -2.3758,-6.559764 -5.62134,-7.518782 v -20.170255 c 4.16794,1.912309 8.03834,4.129036 11.5391,6.628427 v 1.555254 0.0045 12.017464 c 0,1.225664 0.99334,2.219019 2.21901,2.219019 1.22566,0 2.21901,-0.993355 2.21901,-2.219019 V -52.58551 l 27.08937,-12.114746 c 0.7988,-0.357054 1.31264,-1.150136 1.31264,-2.025609 0,-0.874327 -0.51499,-1.668554 -1.31379,-2.025609 z m -47.68992,52.470127 2.40441,-6.327457 2.40441,6.327457 z m 5.80675,-18.194999 c 0,1.87569 -1.5255,3.401187 -3.40234,3.401187 -1.87569,0 -3.40119,-1.525497 -3.40119,-3.401187 0,-1.876837 1.5255,-3.402337 3.40119,-3.402337 1.87684,0 3.40234,1.5255 3.40234,3.402337 z m 14.66907,-22.915701 c -0.1442,-0.416564 -0.4097,-0.787355 -0.77362,-1.057437 -4.4861,-3.324509 -9.55699,-6.199272 -15.07877,-8.569353 v -16.128191 l 36.72417,16.421163 z m 0,0"
     id="path2"
     inkscape:connector-curvature="0"
     style="stroke-width:0.29296938" />
</svg>
