<svg xmlns="http://www.w3.org/2000/svg" viewBox="0 -102 150 168.8">
  <path d="M148.7-68.8l-72.8-32.5c-.6-.3-1.2-.3-1.8 0L44.6-88.1a2.2 2.2 0 1 0 1.8 4L75-96.7l26.2 11.7v16.3a91 91 0 0 0-26.3-5.5c-.5 0-14 .5-29.1 6.7-6.1 2.5-11.6 5.6-16.5 9.2-.4.2-.6.6-.8 1L7.7-66.7l29.2-13.1a2.2 2.2 0 1 0-1.8-4l-33.8 15a2.2 2.2 0 0 0 0 4.1l27.1 12.1V-42a2.2 2.2 0 0 0 4.4 0v-13.5c4.4-3.1 9.3-5.8 14.6-8 14-5.7 26.6-6.3 27.6-6.3s12.8.6 26.2 5.8v22a7.9 7.9 0 0 0-.8 14.8l-1.5 4A83 83 0 0 0 75-16c-13.2-7-35.2-8.9-42.2-9.3v-6.3a2.2 2.2 0 0 0-4.4 0v8.4c0 1.2 1 2.1 2.1 2.2.3 0 29.2 1.3 43.4 9.5a2.2 2.2 0 0 0 2.2 0c4.8-2.8 12-5 21-6.8l-1.4 3.4a2.2 2.2 0 0 0 2 3H109a2.2 2.2 0 0 0 2.1-3l-2-5.2c6-.7 10.3-1 10.4-1 1.2 0 2.1-1 2.1-2.1v-8.4a2.2 2.2 0 0 0-4.4 0v6.3c-2.1.1-5.6.4-9.7.9l-1.1-2.8a7.9 7.9 0 0 0-.8-14.8v-20.2c4.2 2 8 4.2 11.6 6.7V-42a2.2 2.2 0 1 0 4.4 0v-10.6l27-12.1a2.2 2.2 0 0 0 0-4zM101-16.3l2.4-6.3 2.4 6.3zm5.8-18.2a3.4 3.4 0 1 1-6.8 0 3.4 3.4 0 0 1 6.8 0zm14.7-22.9c-.2-.4-.4-.8-.8-1a75 75 0 0 0-15-8.6v-16.1l36.6 16.4zm0 0"/>
</svg>