<svg xmlns="http://www.w3.org/2000/svg" viewBox="-28 0 150 168.8">
  <path d="M121.7 158.6l-3.1-12.7a2.6 2.6 0 1 0-5 1.3l3.2 12.6a3 3 0 0 1-3 3.8H-19.8a3 3 0 0 1-3-3.8l6.2-24.5c1.7-6.5 6.5-11.9 12.9-14.2l20.2-7.5 15.9 15.8a2.6 2.6 0 0 0 3.5.1l11-9.7 10.7 9.7a2.6 2.6 0 0 0 3.5 0l16.4-16 20.2 7.6a20.6 20.6 0 0 1 12.9 14.2l.6 2.7a2.6 2.6 0 0 0 5-1.3l-.7-2.6c-2-8.2-8-15-16-17.9l-32.8-12a5.7 5.7 0 0 0-4.9.4l-1.2.7-13.6 8.1-12.9-7.6-2-1.2a5.6 5.6 0 0 0-5-.4l-10.8 4-21.8 8c-8 3-14 9.7-16 17.9l-6.2 24.5a8.1 8.1 0 0 0 7.9 10.2h133.6a8.1 8.1 0 0 0 8-10.2zM34.3 124l-12.5-12.5L29 109h.4l.3.2 13 7.6zm25 0l-8-7.3 9.4-5.6 3.7-2.2h.5l7.2 2.6zm0 0"/>
  <path d="M44.4 128.8v27.4a2.6 2.6 0 1 0 5.2 0v-27.4a2.6 2.6 0 1 0-5.2 0zm0 0M20 17.8l1.4-1.5a36.1 36.1 0 0 1 51 .3 36.1 36.1 0 0 1-12.7 59.6c-2 .8-3.3 2.7-3.3 4.8v8c0 5.2-4.2 9.5-9.4 9.6-2.5 0-5-1-6.8-2.8a10 10 0 0 1-3-7V73.4c0-7.1 5.2-13.2 12.3-14.3 3.7-.6 7.2-2.4 9.8-5.2a2.6 2.6 0 0 0-3.8-3.5c-1.8 2-4.2 3.2-6.8 3.6a19.6 19.6 0 0 0-16.6 19.4v15.2c0 4 1.6 8 4.5 10.8 2.8 2.7 6.4 4.2 10.2 4.2h.3c8-.1 14.4-6.8 14.4-14.7v-8a41.6 41.6 0 0 0 14.6-68 41.3 41.3 0 0 0-60 1.4 2.6 2.6 0 0 0 3.8 3.4zm0 0"/>
  <path d="M20 57h.1c8.1 0 14.7-6.6 14.7-14.7a12 12 0 0 1 12.3-12c6.3.1 11.6 5.4 11.7 11.7 0 1.4 1.2 2.5 2.6 2.5 1.5 0 2.6-1.2 2.6-2.6-.3-9-7.8-16.6-16.8-16.8a17 17 0 0 0-17.5 17.2c0 5.2-4.3 9.5-9.6 9.6-2.5 0-4.9-1-6.7-2.8-1.9-2-3-4.6-3-7.3.2-5.8 1.5-11.3 4.2-16.3A2.6 2.6 0 0 0 10 23a41 41 0 0 0-4.7 18.7c0 4 1.6 8 4.5 10.9C12.5 55.5 16.2 57 20 57zm0 0"/>
</svg>