<?xml version="1.0" encoding="UTF-8" standalone="no"?>
<!-- Generator: Adobe Illustrator 19.0.0, SVG Export Plug-In . SVG Version: 6.00 Build 0)  -->

<svg
   xmlns:dc="http://purl.org/dc/elements/1.1/"
   xmlns:cc="http://creativecommons.org/ns#"
   xmlns:rdf="http://www.w3.org/1999/02/22-rdf-syntax-ns#"
   xmlns:svg="http://www.w3.org/2000/svg"
   xmlns="http://www.w3.org/2000/svg"
   xmlns:sodipodi="http://sodipodi.sourceforge.net/DTD/sodipodi-0.dtd"
   xmlns:inkscape="http://www.inkscape.org/namespaces/inkscape"
   version="1.1"
   id="Capa_1"
   x="0px"
   y="0px"
   viewBox="0 0 200 225"
   xml:space="preserve"
   sodipodi:docname="advantages-icon-3.svg"
   inkscape:version="0.92.1 r15371"
   width="200"
   height="225"><metadata
     id="metadata51"><rdf:RDF><cc:Work
         rdf:about=""><dc:format>image/svg+xml</dc:format><dc:type
           rdf:resource="http://purl.org/dc/dcmitype/StillImage" /><dc:title></dc:title></cc:Work></rdf:RDF></metadata><defs
     id="defs49" /><sodipodi:namedview
     pagecolor="#ffffff"
     bordercolor="#666666"
     borderopacity="1"
     objecttolerance="10"
     gridtolerance="10"
     guidetolerance="10"
     inkscape:pageopacity="0"
     inkscape:pageshadow="2"
     inkscape:window-width="1920"
     inkscape:window-height="1017"
     id="namedview47"
     showgrid="false"
     inkscape:zoom="11.125147"
     inkscape:cx="92.592235"
     inkscape:cy="213.97124"
     inkscape:window-x="-8"
     inkscape:window-y="-8"
     inkscape:window-maximized="1"
     inkscape:current-layer="Capa_1"
     fit-margin-top="0"
     fit-margin-left="0"
     fit-margin-right="0"
     fit-margin-bottom="0" /><g
     id="g14"
     transform="matrix(0.41666667,0,0,0.41666667,0,0.237286)"><g
       id="g12"><g
         id="g10"><path
           d="M 472,432 H 448 V 280 c -0.003,-4.418 -3.588,-7.997 -8.006,-7.994 -2.607,0.002 -5.05,1.274 -6.546,3.41 l -112,160 c -2.532,3.621 -1.649,8.609 1.972,11.14 1.343,0.939 2.941,1.443 4.58,1.444 h 104 v 24 c 0,4.418 3.582,8 8,8 4.418,0 8,-3.582 8,-8 v -24 h 24 c 4.418,0 8,-3.582 8,-8 0,-4.418 -3.582,-8 -8,-8 z m -40,0 H 343.36 L 432,305.376 Z"
           id="path2"
           inkscape:connector-curvature="0" /><path
           d="m 328,464 h -94.712 l 88.056,-103.688 c 0.2,-0.238 0.387,-0.486 0.56,-0.744 16.566,-24.518 11.048,-57.713 -12.56,-75.552 -28.705,-20.625 -68.695,-14.074 -89.319,14.631 -7.821,10.885 -12.027,23.95 -12.025,37.353 0,4.418 3.582,8 8,8 4.418,0 8,-3.582 8,-8 -0.003,-26.51 21.486,-48.002 47.995,-48.005 10.048,-10e-4 19.843,3.151 28.005,9.013 16.537,12.671 20.388,36.007 8.8,53.32 l -98.896,116.496 c -2.859,3.369 -2.445,8.417 0.924,11.276 1.445,1.226 3.277,1.899 5.172,1.9 h 112 c 4.418,0 8,-3.582 8,-8 0,-4.418 -3.582,-8 -8,-8 z"
           id="path4"
           inkscape:connector-curvature="0" /><path
           d="m 216.176,424.152 c 0.167,-4.415 -3.278,-8.129 -7.693,-8.296 -0.001,0 -0.002,0 -0.003,0 C 104.11,411.982 20.341,328.363 16.28,224 H 48 c 4.418,0 8,-3.582 8,-8 0,-4.418 -3.582,-8 -8,-8 H 16.28 C 20.283,103.821 103.82,20.287 208,16.288 V 40 c 0,4.418 3.582,8 8,8 4.418,0 8,-3.582 8,-8 V 16.288 c 102.754,3.974 185.686,85.34 191.616,188 l -31.2,-31.2 c -3.178,-3.07 -8.242,-2.982 -11.312,0.196 -2.994,3.1 -2.994,8.015 0,11.116 l 44.656,44.656 c 0.841,1.018 1.925,1.807 3.152,2.296 0.313,0.094 0.631,0.172 0.952,0.232 0.549,0.198 1.117,0.335 1.696,0.408 0.08,0 0.152,0 0.232,0 0.08,0 0.152,0 0.224,0 0.609,-0.046 1.211,-0.164 1.792,-0.352 0.329,-0.04 0.655,-0.101 0.976,-0.184 1.083,-0.385 2.069,-1.002 2.888,-1.808 L 474.936,184.4 c 3.069,-3.178 2.982,-8.242 -0.196,-11.312 -3.1,-2.994 -8.015,-2.994 -11.116,0 L 431.648,205.04 C 425.933,90.37 331.38,0.281 216.568,0.112 216.368,0.104 216.2,0 216,0 215.8,0 215.632,0.104 215.432,0.112 96.582,0.275 0.275,96.582 0.112,215.432 0.112,215.632 0,215.8 0,216 c 0,0.2 0.104,0.368 0.112,0.568 0.199,115.917 91.939,210.97 207.776,215.28 h 0.296 c 4.299,-0.001 7.829,-3.4 7.992,-7.696 z"
           id="path6"
           inkscape:connector-curvature="0" /><path
           d="m 323.48,108.52 c -3.124,-3.123 -8.188,-3.123 -11.312,0 L 226.2,194.48 c -6.495,-2.896 -13.914,-2.896 -20.408,0 l -40.704,-40.704 c -3.178,-3.069 -8.243,-2.981 -11.312,0.197 -2.994,3.1 -2.994,8.015 0,11.115 l 40.624,40.624 c -5.704,11.94 -0.648,26.244 11.293,31.947 9.165,4.378 20.095,2.501 27.275,-4.683 7.219,-7.158 9.078,-18.118 4.624,-27.256 l 85.888,-85.888 c 3.123,-3.124 3.123,-8.188 0,-11.312 z M 221.658,221.654 c -10e-4,0.001 -10e-4,0.001 -0.002,0.002 -3.164,3.025 -8.148,3.025 -11.312,0 -3.125,-3.124 -3.125,-8.189 -0.002,-11.314 3.124,-3.125 8.189,-3.125 11.314,-0.002 3.125,3.124 3.125,8.19 0.002,11.314 z"
           id="path8"
           inkscape:connector-curvature="0" /></g></g></g><g
     id="g16"
     transform="translate(0,-255)" /><g
     id="g18"
     transform="translate(0,-255)" /><g
     id="g20"
     transform="translate(0,-255)" /><g
     id="g22"
     transform="translate(0,-255)" /><g
     id="g24"
     transform="translate(0,-255)" /><g
     id="g26"
     transform="translate(0,-255)" /><g
     id="g28"
     transform="translate(0,-255)" /><g
     id="g30"
     transform="translate(0,-255)" /><g
     id="g32"
     transform="translate(0,-255)" /><g
     id="g34"
     transform="translate(0,-255)" /><g
     id="g36"
     transform="translate(0,-255)" /><g
     id="g38"
     transform="translate(0,-255)" /><g
     id="g40"
     transform="translate(0,-255)" /><g
     id="g42"
     transform="translate(0,-255)" /><g
     id="g44"
     transform="translate(0,-255)" /></svg>