<svg xmlns="http://www.w3.org/2000/svg" viewBox="0 0 200 225">
  <path d="M196.7 180.2h-10V117a3.3 3.3 0 0 0-6.1-2l-46.7 66.8a3.3 3.3 0 0 0 2.8 5.2H180v10a3.3 3.3 0 0 0 6.7 0v-10h10a3.3 3.3 0 0 0 0-6.7zm-16.7 0h-37l37-52.7z"/>
  <path d="M136.7 193.6H97.2l36.7-43.2.2-.3c7-10.3 4.6-24-5.2-31.5a26.7 26.7 0 0 0-42.2 21.6 3.3 3.3 0 0 0 6.6 0A20 20 0 0 1 125 124c6.9 5.3 8.5 15 3.7 22.2l-41.2 48.5a3.3 3.3 0 0 0 2.5 5.5h46.7a3.3 3.3 0 0 0 0-6.6z"/>
  <path d="M90 177c.1-1.9-1.3-3.4-3.1-3.5a83.2 83.2 0 0 1-80.1-80H20a3.3 3.3 0 0 0 0-6.6H6.8A83.1 83.1 0 0 1 86.7 7V17a3.3 3.3 0 0 0 6.6 0V7a83.2 83.2 0 0 1 79.9 78.4l-13-13a3.3 3.3 0 0 0-4.7 4.7L174 95.7c.3.4.8.7 1.3 1h.4l.7.2h.2l.7-.1.4-.1c.5-.2.9-.4 1.2-.8L198 77.1a3.3 3.3 0 0 0-4.7-4.7l-13.3 13.3A89.9 89.9 0 0 0 90.2.3H90h-.2A89.8 89.8 0 0 0 0 90v.5a90 90 0 0 0 86.6 89.7h.1c1.8 0 3.3-1.4 3.4-3.2z"/>
  <path d="M134.8 45.5a3.3 3.3 0 0 0-4.7 0L94.3 81.3a10.4 10.4 0 0 0-8.6 0l-17-17a3.3 3.3 0 0 0-4.6 4.7L81 86a10 10 0 1 0 18 0l35.8-35.8a3.3 3.3 0 0 0 0-4.7zm-42.4 47a3.4 3.4 0 0 1-4.8 0 3.3 3.3 0 1 1 4.8 0z"/>
</svg>