<?xml version="1.0" encoding="UTF-8" standalone="no"?>
<!-- Generator: Adobe Illustrator 19.0.0, SVG Export Plug-In . SVG Version: 6.00 Build 0)  -->

<svg
   xmlns:dc="http://purl.org/dc/elements/1.1/"
   xmlns:cc="http://creativecommons.org/ns#"
   xmlns:rdf="http://www.w3.org/1999/02/22-rdf-syntax-ns#"
   xmlns:svg="http://www.w3.org/2000/svg"
   xmlns="http://www.w3.org/2000/svg"
   xmlns:sodipodi="http://sodipodi.sourceforge.net/DTD/sodipodi-0.dtd"
   xmlns:inkscape="http://www.inkscape.org/namespaces/inkscape"
   version="1.1"
   id="Capa_1"
   x="0px"
   y="0px"
   viewBox="0 0 200 225"
   xml:space="preserve"
   sodipodi:docname="advantages-icon-2.svg"
   inkscape:version="0.92.1 r15371"
   width="200"
   height="225"><metadata
     id="metadata43"><rdf:RDF><cc:Work
         rdf:about=""><dc:format>image/svg+xml</dc:format><dc:type
           rdf:resource="http://purl.org/dc/dcmitype/StillImage" /><dc:title></dc:title></cc:Work></rdf:RDF></metadata><defs
     id="defs41" /><sodipodi:namedview
     pagecolor="#ffffff"
     bordercolor="#666666"
     borderopacity="1"
     objecttolerance="10"
     gridtolerance="10"
     guidetolerance="10"
     inkscape:pageopacity="0"
     inkscape:pageshadow="2"
     inkscape:window-width="1920"
     inkscape:window-height="1017"
     id="namedview39"
     showgrid="false"
     inkscape:zoom="2.6074563"
     inkscape:cx="91.283457"
     inkscape:cy="139.13952"
     inkscape:window-x="-8"
     inkscape:window-y="-8"
     inkscape:window-maximized="1"
     inkscape:current-layer="Capa_1"
     fit-margin-top="0"
     fit-margin-left="0"
     fit-margin-right="0"
     fit-margin-bottom="0" /><g
     id="g6"
     transform="matrix(0.43945312,0,0,0.43945312,-12.723065,0)"><g
       id="g4"><path
         d="M 482.726,485.783 460.076,353.18 C 457.635,338.893 447.5,327.416 433.623,323.23 l -61.092,-18.433 c -1.265,-14.934 -7.388,-29.023 -17.578,-40.175 -8.151,-8.92 -18.403,-15.415 -29.704,-18.999 1.934,-2.146 3.727,-4.285 5.372,-6.377 14.528,-18.477 22.306,-38.833 24.286,-52.724 h 4.713 c 12.258,0 22.231,-9.972 22.231,-22.231 v -11.396 c 0,-8.181 -4.602,-15.594 -11.523,-19.441 V 106.05 c 0,-4.141 -3.357,-7.498 -7.498,-7.498 -4.141,0 -7.497,3.356 -7.497,7.498 v 30.764 c -2.92,0.507 -6.404,1.383 -9.968,2.884 -0.365,0.133 -0.72,0.287 -1.056,0.472 -0.805,0.367 -1.611,0.754 -2.414,1.19 V 80.938 c 0,-16.693 -13.58,-30.273 -30.273,-30.273 h -20.695 c -7.138,0 -14.111,2.487 -19.637,7.005 l -2.031,1.66 c -3.73,3.05 -8.438,4.73 -13.257,4.73 -4.819,0 -9.528,-1.68 -13.258,-4.73 l -2.03,-1.66 c -5.526,-4.517 -12.499,-7.005 -19.637,-7.005 H 200.38 c -16.693,0 -30.273,13.58 -30.273,30.273 v 60.422 c -0.803,-0.436 -1.609,-0.823 -2.414,-1.19 -0.336,-0.185 -0.69,-0.339 -1.055,-0.472 -3.564,-1.501 -7.049,-2.377 -9.968,-2.884 V 59.025 c 0,-24.278 19.752,-44.03 44.03,-44.03 h 110.601 c 24.279,0 44.03,19.752 44.03,44.03 v 11.786 c 0,4.141 3.357,7.498 7.497,7.498 4.14,0 7.498,-3.356 7.498,-7.498 V 59.025 C 370.326,26.479 343.847,0 311.301,0 H 200.7 c -32.547,0 -59.025,26.479 -59.025,59.025 v 74.43 c -6.921,3.847 -11.523,11.259 -11.523,19.441 v 11.396 c 0,12.259 9.973,22.231 22.231,22.231 h 4.713 c 1.979,13.891 9.758,34.247 24.286,52.724 1.643,2.09 3.435,4.227 5.367,6.371 -25.98,8.252 -44.926,31.61 -47.277,59.179 L 78.378,323.23 c -13.877,4.186 -24.013,15.663 -26.453,29.95 l -9.198,53.849 c -0.697,4.082 2.047,7.955 6.128,8.652 4.08,0.699 7.955,-2.046 8.653,-6.128 l 9.198,-53.849 c 1.476,-8.644 7.608,-15.586 16.003,-18.118 l 56.505,-17.049 v 14.831 c -12.952,2.384 -23.973,11.281 -28.512,23.608 -1.205,3.272 -1.954,6.698 -2.226,10.182 l -5.461,70.095 c -0.412,5.28 1.415,10.538 5.01,14.423 3.595,3.886 8.694,6.116 13.989,6.116 h 9.348 c 4.141,0 7.498,-3.356 7.498,-7.498 0,-4.142 -3.357,-7.497 -7.498,-7.497 h -9.348 c -1.129,0 -2.215,-0.474 -2.982,-1.304 -0.766,-0.828 -1.155,-1.948 -1.067,-3.073 l 5.461,-70.096 c 0.165,-2.111 0.618,-4.186 1.348,-6.167 3.158,-8.575 11.686,-14.382 21.223,-14.449 l 1.235,-0.009 c 0.058,-0.001 0.115,-0.001 0.172,-0.001 9.269,0 17.474,5.256 20.935,13.427 0.971,2.291 1.561,4.713 1.755,7.199 l 5.463,70.097 c 0.087,1.124 -0.302,2.244 -1.068,3.073 -0.766,0.828 -1.853,1.303 -2.982,1.303 h -9.348 c -4.141,0 -7.498,3.356 -7.498,7.497 0,4.141 3.357,7.498 7.498,7.498 h 9.348 c 5.295,0 10.395,-2.229 13.989,-6.116 3.596,-3.887 5.423,-9.144 5.011,-14.422 l -5.463,-70.096 c -0.32,-4.102 -1.295,-8.101 -2.898,-11.884 -4.939,-11.657 -15.5,-19.762 -27.938,-21.955 v -19.306 l 25.774,-7.777 c 2.345,4.939 6.992,15.612 16.197,38.619 9.277,23.214 20.808,52.969 31.867,81.895 0.079,0.243 0.17,0.48 0.272,0.712 7.38,19.311 14.539,38.225 20.662,54.541 1.098,2.926 3.895,4.864 7.02,4.864 3.125,0 5.922,-1.938 7.02,-4.864 6.122,-16.316 13.281,-35.23 20.662,-54.541 0.103,-0.232 0.193,-0.47 0.272,-0.712 11.051,-28.909 22.576,-58.645 31.849,-81.852 9.217,-23.037 13.868,-33.719 16.214,-38.662 l 25.774,7.777 v 44.285 c -17.858,3.469 -31.385,19.219 -31.385,38.077 0,21.391 17.403,38.795 38.795,38.795 21.392,0 38.795,-17.403 38.795,-38.795 0,-18.796 -13.438,-34.508 -31.21,-38.045 v -39.792 l 56.506,17.049 c 8.395,2.532 14.526,9.474 16.003,18.118 l 22.65,132.603 c 0.376,2.199 -0.209,4.349 -1.648,6.054 -1.438,1.704 -3.459,2.644 -5.69,2.644 H 51.393 c -2.231,0 -4.251,-0.939 -5.69,-2.644 -1.438,-1.705 -2.024,-3.854 -1.648,-6.054 l 7.475,-43.762 c 0.697,-4.082 -2.047,-7.955 -6.128,-8.652 -4.08,-0.7 -7.955,2.047 -8.653,6.128 l -7.475,43.762 c -1.115,6.532 0.696,13.183 4.968,18.248 4.274,5.064 10.525,7.968 17.151,7.968 h 409.214 c 6.626,0 12.878,-2.904 17.151,-7.969 4.272,-5.065 6.083,-11.716 4.968,-18.248 z M 355.421,152.089 c 3.995,-0.996 7.202,-0.978 7.238,-0.977 1.292,0.017 2.548,-0.285 3.664,-0.87 0.334,0.831 0.531,1.724 0.531,2.654 v 11.396 c 0,3.99 -3.246,7.236 -7.236,7.236 h -4.197 z m -198.842,19.439 v 0 h -4.197 c -3.99,0 -7.236,-3.246 -7.236,-7.236 v -11.396 c 0,-0.93 0.198,-1.823 0.531,-2.653 1.115,0.585 2.371,0.887 3.664,0.869 0.057,0.01 3.255,-0.008 7.238,0.981 z m 14.995,8.407 v -19.698 c 2.272,0.681 4.757,0.588 7.051,-0.369 3.935,-1.642 6.477,-5.455 6.477,-9.716 V 80.938 c 0,-8.424 6.854,-15.278 15.278,-15.278 h 20.695 c 3.688,0 7.291,1.285 10.146,3.619 l 2.03,1.66 c 6.401,5.234 14.48,8.115 22.749,8.115 8.269,0 16.348,-2.882 22.749,-8.115 l 2.03,-1.66 c 2.854,-2.334 6.458,-3.619 10.146,-3.619 h 20.695 c 8.424,0 15.278,6.854 15.278,15.278 v 69.215 c 0,4.26 2.542,8.074 6.477,9.716 1.314,0.548 2.69,0.814 4.054,0.814 1.017,0 2.026,-0.149 2.997,-0.439 v 19.691 c 0,10.947 -7.568,32.205 -21.594,50.043 -4.646,5.909 -10.618,12.257 -17.971,17.805 -0.233,0.156 -0.456,0.325 -0.669,0.505 -11.391,8.422 -26.038,14.874 -44.192,14.874 -18.154,0 -32.801,-6.452 -44.193,-14.875 -0.213,-0.179 -0.435,-0.348 -0.667,-0.503 -7.353,-5.549 -13.325,-11.897 -17.972,-17.806 -14.025,-17.837 -21.594,-39.096 -21.594,-50.043 z M 305.12,301.07 256,337.784 206.88,301.07 c 4.871,-6.191 7.6,-14.138 7.6,-21.23 v -12.086 c 11.551,6.212 25.334,10.404 41.52,10.404 16.186,0 29.97,-4.192 41.52,-10.404 v 12.086 c 0,7.092 2.729,15.039 7.6,21.23 z m -110.753,-8.369 c -4.004,-1.525 -8.443,-1.775 -12.642,-0.636 -0.184,0.043 -0.364,0.092 -0.539,0.144 l -25.903,7.816 c 4.381,-21.542 21.873,-38.688 44.202,-42.009 v 21.824 c 0,4.704 -2.1,9.567 -5.118,12.861 z m 20.349,60.188 c -0.014,-0.035 -0.028,-0.07 -0.041,-0.104 -0.38,-0.961 -0.755,-1.909 -1.127,-2.846 -0.067,-0.17 -0.134,-0.339 -0.201,-0.507 -0.364,-0.917 -0.725,-1.827 -1.081,-2.722 -0.025,-0.063 -0.05,-0.125 -0.075,-0.189 -1.111,-2.793 -2.182,-5.472 -3.212,-8.039 -0.075,-0.186 -0.15,-0.375 -0.225,-0.56 -0.296,-0.736 -0.587,-1.461 -0.876,-2.177 -0.106,-0.263 -0.211,-0.523 -0.316,-0.783 -0.28,-0.694 -0.558,-1.384 -0.832,-2.059 -0.082,-0.202 -0.162,-0.398 -0.243,-0.599 -0.497,-1.226 -0.983,-2.421 -1.457,-3.586 -0.128,-0.315 -0.259,-0.636 -0.386,-0.947 -0.186,-0.454 -0.367,-0.896 -0.549,-1.341 -0.196,-0.48 -0.392,-0.956 -0.584,-1.424 -0.072,-0.175 -0.147,-0.36 -0.219,-0.534 -0.058,-0.14 -0.111,-0.269 -0.168,-0.408 -0.866,-2.104 -1.689,-4.087 -2.47,-5.952 -0.006,-0.015 -0.013,-0.03 -0.019,-0.045 -0.416,-0.993 -0.823,-1.963 -1.214,-2.887 -0.203,-0.479 -0.403,-0.95 -0.599,-1.412 l 42.245,31.574 -17.652,7.499 c -0.031,0.013 -0.063,0.026 -0.094,0.04 l -7.37,3.131 c -0.418,-1.057 -0.827,-2.093 -1.235,-3.123 z m 17.89,45.908 c -1.481,-3.843 -2.973,-7.708 -4.468,-11.569 -2.338,-6.039 -4.571,-11.781 -6.708,-17.251 l 2.798,-1.189 11.432,13.289 z m 23.539,60.938 c -0.215,-0.446 -0.471,-0.867 -0.767,-1.259 -3.388,-8.955 -7.688,-20.286 -12.447,-32.753 l 7,-38.325 h 12.138 l 7,38.325 c -4.987,13.061 -9.466,24.871 -12.924,34.012 z m 8.736,-87.331 h -17.762 l -8.405,-9.77 17.286,-7.343 17.286,7.343 z m 18.981,14.824 c -1.495,3.861 -2.987,7.726 -4.468,11.569 l -3.054,-16.721 11.432,-13.289 2.798,1.189 c -2.137,5.47 -4.37,11.213 -6.708,17.252 z M 312.58,315.18 c -0.371,0.876 -0.757,1.795 -1.15,2.733 -0.051,0.122 -0.103,0.245 -0.154,0.368 -0.389,0.93 -0.785,1.88 -1.195,2.869 -0.027,0.065 -0.055,0.134 -0.082,0.2 -0.354,0.853 -0.717,1.733 -1.086,2.63 -0.069,0.168 -0.134,0.323 -0.203,0.492 -0.082,0.201 -0.17,0.414 -0.253,0.617 -0.164,0.4 -0.331,0.808 -0.499,1.216 -0.206,0.503 -0.411,1.004 -0.622,1.519 -0.067,0.164 -0.136,0.335 -0.204,0.5 -0.522,1.279 -1.058,2.597 -1.606,3.951 -0.086,0.212 -0.171,0.42 -0.257,0.635 -0.271,0.669 -0.547,1.352 -0.824,2.039 -0.108,0.269 -0.217,0.537 -0.326,0.809 -0.286,0.709 -0.575,1.427 -0.867,2.155 -0.082,0.203 -0.165,0.411 -0.247,0.615 -1.017,2.532 -2.072,5.173 -3.167,7.925 -0.036,0.091 -0.072,0.18 -0.108,0.272 -0.354,0.889 -0.712,1.793 -1.074,2.704 -0.067,0.17 -0.135,0.34 -0.203,0.511 -0.374,0.942 -0.751,1.894 -1.133,2.861 -0.007,0.018 -0.014,0.036 -0.021,0.053 -0.412,1.042 -0.826,2.09 -1.248,3.16 l -7.377,-3.134 c -0.026,-0.011 -0.052,-0.022 -0.077,-0.033 l -17.662,-7.503 42.245,-31.574 c -0.198,0.46 -0.398,0.93 -0.6,1.41 z m 18.234,-22.97 c -0.001,0 -0.003,-10e-4 -0.004,-10e-4 -0.006,-0.002 -0.013,-0.003 -0.019,-0.006 -4.35,-1.305 -8.99,-1.089 -13.157,0.498 -3.019,-3.294 -5.118,-8.157 -5.118,-12.861 v -21.835 c 22.469,3.312 39.908,20.297 44.232,42.029 z m 58.187,106.165 c 0,13.124 -10.677,23.8 -23.8,23.8 -13.123,0 -23.8,-10.676 -23.8,-23.8 0,-13.124 10.677,-23.8 23.8,-23.8 13.123,0 23.8,10.676 23.8,23.8 z"
         id="path2"
         inkscape:connector-curvature="0" /></g></g><g
     id="g8"
     transform="translate(-28.952041,-287)" /><g
     id="g10"
     transform="translate(-28.952041,-287)" /><g
     id="g12"
     transform="translate(-28.952041,-287)" /><g
     id="g14"
     transform="translate(-28.952041,-287)" /><g
     id="g16"
     transform="translate(-28.952041,-287)" /><g
     id="g18"
     transform="translate(-28.952041,-287)" /><g
     id="g20"
     transform="translate(-28.952041,-287)" /><g
     id="g22"
     transform="translate(-28.952041,-287)" /><g
     id="g24"
     transform="translate(-28.952041,-287)" /><g
     id="g26"
     transform="translate(-28.952041,-287)" /><g
     id="g28"
     transform="translate(-28.952041,-287)" /><g
     id="g30"
     transform="translate(-28.952041,-287)" /><g
     id="g32"
     transform="translate(-28.952041,-287)" /><g
     id="g34"
     transform="translate(-28.952041,-287)" /><g
     id="g36"
     transform="translate(-28.952041,-287)" /></svg>