<?xml version="1.0" encoding="UTF-8" standalone="no"?>
<svg
   xmlns:dc="http://purl.org/dc/elements/1.1/"
   xmlns:cc="http://creativecommons.org/ns#"
   xmlns:rdf="http://www.w3.org/1999/02/22-rdf-syntax-ns#"
   xmlns:svg="http://www.w3.org/2000/svg"
   xmlns="http://www.w3.org/2000/svg"
   xmlns:sodipodi="http://sodipodi.sourceforge.net/DTD/sodipodi-0.dtd"
   xmlns:inkscape="http://www.inkscape.org/namespaces/inkscape"
   height="225"
   viewBox="-28 0 150 168.75071"
   width="200"
   version="1.1"
   id="svg10"
   sodipodi:docname="advantages-icon-4.svg"
   inkscape:version="0.92.1 r15371">
  <metadata
     id="metadata16">
    <rdf:RDF>
      <cc:Work
         rdf:about="">
        <dc:format>image/svg+xml</dc:format>
        <dc:type
           rdf:resource="http://purl.org/dc/dcmitype/StillImage" />
        <dc:title></dc:title>
      </cc:Work>
    </rdf:RDF>
  </metadata>
  <defs
     id="defs14" />
  <sodipodi:namedview
     pagecolor="#ffffff"
     bordercolor="#666666"
     borderopacity="1"
     objecttolerance="10"
     gridtolerance="10"
     guidetolerance="10"
     inkscape:pageopacity="0"
     inkscape:pageshadow="2"
     inkscape:window-width="1920"
     inkscape:window-height="1017"
     id="namedview12"
     showgrid="false"
     inkscape:zoom="1.9555922"
     inkscape:cx="82.112664"
     inkscape:cy="131.01212"
     inkscape:window-x="-8"
     inkscape:window-y="-8"
     inkscape:window-maximized="1"
     inkscape:current-layer="svg10"
     fit-margin-top="0"
     fit-margin-left="0"
     fit-margin-right="0"
     fit-margin-bottom="0"
     units="px" />
  <g
     id="g4489"
     transform="matrix(0.32800154,0,0,0.32800154,-28.000246,0.81264184)">
    <path
       id="path2"
       d="m 456.54297,480.90625 -9.74219,-38.4375 c -1.0625,-4.19531 -5.32031,-6.73047 -9.51562,-5.66797 -4.19141,1.0625 -6.72657,5.32031 -5.66797,9.51172 l 9.73828,38.43359 c 0.71094,2.80469 0.0977,5.72657 -1.67969,8.00782 -1.77344,2.27734 -4.44922,3.58593 -7.33984,3.58593 H 24.980469 c -2.890625,0 -5.566407,-1.30859 -7.339844,-3.58593 C 15.863281,490.47266 15.25,487.55078 15.957031,484.75 l 18.910157,-74.62891 c 5.078124,-20.05859 19.703124,-36.3125 39.113281,-43.48437 l 61.683591,-22.78516 48.47266,48.20703 c 1.52344,1.51172 3.51953,2.27735 5.52344,2.27735 1.83593,0 3.67968,-0.64453 5.16015,-1.94141 l 33.73438,-29.55078 32.28125,29.44531 c 1.49609,1.36328 3.38672,2.04688 5.27344,2.04688 1.96484,0 3.92578,-0.73438 5.4414,-2.19922 l 50.03125,-48.31641 61.75391,22.8125 c 19.41015,7.17188 34.03515,23.42969 39.11328,43.48828 l 2.05078,8.08985 c 1.0625,4.1914 5.32031,6.72656 9.51563,5.66797 4.1914,-1.06641 6.73046,-5.32422 5.66796,-9.51954 l -2.05078,-8.08203 c -6.34765,-25.0625 -24.61328,-45.375 -48.86718,-54.33593 L 288.6875,314.97266 c -4.92969,-1.82032 -10.34766,-1.32422 -14.86328,1.36328 l -3.55859,2.12109 -41.63672,24.78906 -39.30078,-23.0664 -6.35547,-3.73047 c -0.5625,-0.33203 -1.13672,-0.62891 -1.72266,-0.89063 -4.11328,-1.83593 -8.76953,-2.0039 -13.04687,-0.42187 l -33.27735,12.29297 c -0.008,0.004 -0.0195,0.008 -0.0273,0.0117 l -66.343752,24.5039 C 44.300781,360.90234 26.03125,381.21484 19.6875,406.27734 L 0.773438,480.91016 c -1.902344,7.52343 -0.257813,15.34765 4.507812,21.46875 4.765625,6.11718 11.945312,9.625 19.699219,9.625 H 432.33594 c 7.7539,0 14.93359,-3.50782 19.69922,-9.625 4.76562,-6.1211 6.41015,-13.94922 4.50781,-21.47266 z m -266.54688,-105.10938 -38.13671,-37.92578 21.76953,-8.03906 c 0.46875,-0.17578 0.98437,-0.12891 1.41406,0.125 l 0.96094,0.5625 39.32812,23.08594 z m 75.96094,-0.0312 -24.21875,-22.09375 28.74609,-17.11718 11.34766,-6.75782 c 0.4336,-0.25781 0.94922,-0.30468 1.42188,-0.1289 l 22.01562,8.1289 z m 0,0"
       inkscape:connector-curvature="0" />
    <path
       id="path4"
       d="m 220.82812,390.33594 v 83.49609 c 0,4.32422 3.50391,7.83203 7.82813,7.83203 4.32812,0 7.83203,-3.50781 7.83203,-7.83203 v -83.49609 c 0,-4.32813 -3.50391,-7.83203 -7.83203,-7.83203 -4.32422,0 -7.82813,3.5039 -7.82813,7.83203 z m 0,0"
       inkscape:connector-curvature="0" />
    <path
       id="path6"
       d="m 146.12109,51.917969 c 1.46875,-1.613281 3.00782,-3.203125 4.57422,-4.734375 21.49219,-20.988282 49.9336,-32.148438 80.03906,-31.488282 28.46094,0.667969 55.30469,12.207032 75.58204,32.484376 20.27734,20.277343 31.8164,47.121093 32.48437,75.582032 0.63672,27.07422 -8.60547,53.36328 -26.02344,74.01953 -12.125,14.38281 -27.80468,25.50781 -45.34375,32.17969 -6.05078,2.30468 -10.11718,8.16406 -10.11718,14.58593 v 24.25 c 0,15.81641 -12.85938,28.92969 -28.66407,29.23047 -7.6914,0.15625 -15.05468,-2.82031 -20.69921,-8.35937 -5.78907,-5.67969 -9.11329,-13.55469 -9.11329,-21.60547 v -46.35938 c 0,-21.87109 15.76172,-40.23046 37.47657,-43.64843 11.33593,-1.78907 21.92578,-7.41407 29.82812,-15.84375 2.95703,-3.15625 2.79688,-8.11328 -0.35937,-11.07032 -3.15235,-2.95312 -8.10938,-2.79687 -11.06641,0.35938 -5.60937,5.98437 -12.81641,9.81641 -20.83984,11.08203 -29.375,4.62891 -50.69922,29.49219 -50.69922,59.12109 v 46.35938 c 0,12.22656 5.03125,24.17578 13.80469,32.78516 8.46484,8.30468 19.48437,12.84765 31.10937,12.84765 0.28516,0 0.57031,-0.004 0.85547,-0.008 24.27734,-0.46484 44.03125,-20.60156 44.03125,-44.89062 l 0.0234,-24.19922 c 20.01562,-7.61328 37.91015,-20.3125 51.74609,-36.71875 19.88672,-23.58203 30.4375,-53.58594 29.71094,-84.48438 C 353.69531,90.886719 340.53125,60.242188 317.39062,37.101562 294.25391,13.964844 263.60937,0.800781 231.09375,0.0351562 196.70312,-0.761719 164.28125,12.019531 139.75,35.976562 c -1.78125,1.742188 -3.53125,3.550782 -5.20313,5.382813 -2.91406,3.195313 -2.6875,8.148437 0.50782,11.066406 3.19922,2.914063 8.14843,2.6875 11.0664,-0.507812 z m 0,0"
       inkscape:connector-curvature="0" />
    <path
       id="path8"
       d="m 146.56641,171.31641 h 0.20703 c 24.64062,-0.11329 44.6914,-20.25391 44.6914,-44.89844 0,-9.94141 3.91797,-19.24609 11.03125,-26.19922 7.10547,-6.9375 16.50782,-10.609375 26.49219,-10.40625 19.23047,0.453125 35.24219,16.46484 35.69531,35.69531 0.10157,4.32422 3.72266,7.70703 8.01172,7.64453 4.32422,-0.10156 7.75,-3.6875 7.64844,-8.01171 -0.64844,-27.468755 -23.51953,-50.339849 -50.99609,-50.988286 -14.22657,-0.292969 -27.65235,4.957031 -37.79297,14.863281 -10.16016,9.921875 -15.75391,23.207035 -15.75391,37.402345 0,16.04687 -13.05469,29.16406 -29.09766,29.23437 -7.62109,0.0391 -14.9414,-3.00781 -20.46484,-8.57031 -5.75781,-5.80078 -9.00391,-13.82422 -8.90625,-22.01953 0.21094,-17.66016 4.39844,-34.429688 12.45703,-49.84375 2.00391,-3.832031 0.51953,-8.566406 -3.3125,-10.570312 -3.83203,-2 -8.5664,-0.515626 -10.57031,3.3125 -9.20703,17.621093 -13.99609,36.769532 -14.23438,56.917972 -0.14453,12.36328 4.75782,24.47656 13.45313,33.23437 8.45703,8.52344 19.61328,13.20703 31.44141,13.20313 z m 0,0"
       inkscape:connector-curvature="0" />
  </g>
</svg>
