<svg xmlns="http://www.w3.org/2000/svg" viewBox="0 0 214.8 214.8">
  <path d="M85.4 214.6h.5c0 .1 0 .2-.3.2-.4 0-.4 0-.2-.2zm-25.5-11.5l-.5-.6.6.5.6.6c0 .2-.2 0-.7-.5zm-2.1-2.1l-.5-.6.6.5.6.6c0 .2-.3 0-.7-.5zm143.1-44.1l.6-.6c.1 0 0 .3-.3.6a2 2 0 0 1-.6.5s0-.2.3-.5zm2.1-2.2l.7-.5s-.1.3-.4.5a2 2 0 0 1-.6.6s0-.3.3-.6zm11.6-25.5c0-.3 0-.4.1-.2v.5l-.1-.3zM0 85.5c0-.3 0-.3.2-.1v.5c-.1 0-.2 0-.2-.4zM11.5 60l.6-.5s0 .2-.3.5a2 2 0 0 1-.7.6l.4-.6zm2-2l.7-.6c.1 0-.1.3-.5.6l-.7.7.5-.7zm143.2-44.3l-.5-.6.6.5c.6.4.7.7.5.7l-.6-.6zm-2.1-2.2l-.5-.6.6.6.6.5c0 .3-.2.1-.7-.5zM129 .1h.6l-.4.1c-.3 0-.4 0-.2-.1z" fill="#f9f9fa"/>
  <path d="M58.8 202l-.5-.6.6.6.6.5c0 .3-.2.1-.7-.5zM202 155.8l.6-.5s0 .2-.3.5a2 2 0 0 1-.7.5l.4-.5zM12.2 59.4l.4-.5c.4-.3.4-.3.1.1-.3.5-.5.6-.5.4zm143.5-46.8l-.5-.6.6.5.5.6c0 .2-.2 0-.6-.5z" fill="#f6f8f8"/>
  <path d="M92.5 214.6h.5c.1.1 0 .2-.3.2s-.4 0-.2-.2zm122-92.5c0-.4.2-.4.2-.2v.5l-.1-.3zM0 92.7c0-.3 0-.4.2-.2v.5c-.1.1-.2 0-.2-.3zM121.9 0h.5l-.3.1c-.3 0-.4 0-.2-.1zm5.8 0h.5l-.3.1c-.3 0-.4 0-.2-.1z" fill="#f2f4f5"/>
  <path d="M87.2 214.6h.7c.2.1 0 .2-.3.2-.4 0-.6 0-.4-.2zm127.4-87.4c0-.3 0-.5.1-.3v.7l-.1-.4zm0-4.4c0-.3 0-.3.1-.1v.5l-.1-.4zM0 91.8c0-.2 0-.3.2 0v.4c-.1.1-.2 0-.2-.3zm0-4.3c0-.3 0-.5.2-.3v.7c-.1.2-.2 0-.2-.4zM127 .1c.1-.1.4-.1.4 0l-.3.1c-.3 0-.4 0-.2-.1z" fill="#eef0f2"/>
  <path d="M88.3 214.6h.6c.2.1 0 .2-.3.2s-.5 0-.3-.2zm2.4 0h.8c.2 0 0 .2-.4.2s-.6 0-.4-.2zm123.9-88.4c0-.4 0-.5.1-.4v.7l-.1-.3zm0-2.4c0-.4 0-.5.1-.3v.6l-.1-.3zM0 91c0-.4 0-.5.2-.3v.6c-.1.2-.2 0-.2-.3zm0-2.4c0-.4 0-.5.2-.3v.6c-.1.2-.2 0-.2-.3zM123.2.1c.2-.1.5-.1.8 0h-.8zm2.7 0h.3-.3z" fill="#ebeef0"/>
  <path d="M86.5 214.5c-13.1-.9-25.4-8-32.7-19-2-3-48.5-85-49.8-87.8a43.8 43.8 0 0 1 15.3-53.9c3.8-2.5 85.5-48.7 88.4-50A43.4 43.4 0 0 1 161 19.3c2 3 48.5 85 49.8 87.8a43.8 43.8 0 0 1-14 53c-3 2.2-86.8 49.7-90 51a43.6 43.6 0 0 1-20.3 3.4z" fill="#eaedef"/>
</svg>