<svg xmlns="http://www.w3.org/2000/svg" viewBox="-28 0 512 512">
  <g fill="#fff">
    <path d="M456.5 481l-9.7-38.5a7.8 7.8 0 1 0-15.2 3.8l9.8 38.4a9.3 9.3 0 0 1-9 11.6H25a9.3 9.3 0 0 1-9-11.6l18.9-74.6c5-20 19.7-36.3 39-43.5l61.8-22.7L184 392a7.8 7.8 0 0 0 10.7.3l33.8-29.6 32.2 29.5a7.8 7.8 0 0 0 10.8-.2l50-48.3 61.7 22.8a62.8 62.8 0 0 1 39.1 43.5l2.1 8.1a7.8 7.8 0 0 0 15.2-3.8l-2-8.1a78.4 78.4 0 0 0-49-54.4l-100-37c-5-1.7-10.4-1.3-14.9 1.4l-3.5 2.2-41.7 24.7-39.3-23-6.3-3.8a17.1 17.1 0 0 0-14.8-1.3l-33.3 12.3L68.6 352a78.4 78.4 0 0 0-49 54.4L.9 480.9A24.8 24.8 0 0 0 25 512h407.3a24.8 24.8 0 0 0 24.2-31zM190 375.7l-38.1-38 21.7-8c.5-.1 1-.1 1.4.2l1 .5 39.3 23.1zm76 0l-24.3-22.1 28.8-17.1 11.3-6.8c.5-.3 1-.3 1.5-.1l22 8.1zm0 0"/>
    <path d="M220.8 390.3v83.5a7.8 7.8 0 1 0 15.7 0v-83.5a7.8 7.8 0 1 0-15.7 0zm0 0M146.1 52a110.2 110.2 0 0 1 160.2-3.7 110.2 110.2 0 0 1 6.5 149.5 111.1 111.1 0 0 1-45.4 32.2c-6 2.3-10 8.1-10 14.5v24.3c0 15.8-13 29-28.7 29.2-7.7.2-15.1-2.8-20.7-8.3a30.5 30.5 0 0 1-9.2-21.6v-46.4a44 44 0 0 1 37.5-43.6c11.4-1.8 22-7.5 29.8-15.9a7.8 7.8 0 0 0-11.4-10.7 36 36 0 0 1-20.8 11 59.7 59.7 0 0 0-50.7 59.2v46.4c0 12.2 5 24.1 13.8 32.7a44.2 44.2 0 0 0 31 12.9h1c24.2-.5 44-20.6 44-44.9v-24.2a126.9 126.9 0 0 0 81.5-121.2c-.8-32.5-14-63.2-37.1-86.3A125.8 125.8 0 0 0 231 .1a125.5 125.5 0 0 0-96.6 41.3 7.8 7.8 0 0 0 11.6 10.5zm0 0"/>
    <path d="M146.6 171.3h.2a45 45 0 0 0 44.7-44.9A36.4 36.4 0 0 1 229 89.8a37 37 0 0 1 35.7 35.7 7.8 7.8 0 0 0 15.7-.4 52.1 52.1 0 1 0-104.5 1.3c-.1 16-13.2 29.2-29.2 29.3-7.6 0-15-3-20.5-8.6a31 31 0 0 1-8.9-22c.2-17.7 4.4-34.5 12.5-49.9a7.8 7.8 0 0 0-13.9-7.2 125 125 0 0 0-14.2 56.9A46.7 46.7 0 0 0 115 158a44 44 0 0 0 31.5 13.2zm0 0"/>
  </g>
</svg>