<svg xmlns="http://www.w3.org/2000/svg" viewBox="0 0 512 512">
  <g fill="#fff">
    <path d="M487.6 299.9h-7.7v-69c0-11-5.4-20.6-13.7-26.5V195c0-13.6-11.1-24.7-24.7-24.7h-5.8l22-32.1a23.7 23.7 0 0 0-6.3-32.9L303 4.1a23.5 23.5 0 0 0-32.8 6.2L141.8 198.5h-35.6l8.6-87.2c0-1 .7-1.8 1.6-2.1 11-4.2 20.7-12 27-22 .6-.8 1.5-1.3 2.5-1.2l56 5.6a7.3 7.3 0 0 0 1.4-14.6l-56-5.5a17 17 0 0 0-16.1 7.8 40.8 40.8 0 0 1-20 16.2 17 17 0 0 0-11 14.4l-8.7 88.6h-9.3L95.8 60.6a9 9 0 0 1 9.9-8l113 11.1a7.3 7.3 0 0 0 1.5-14.5L107.2 38a23.7 23.7 0 0 0-25.9 21.2l-11 111H51.6C38 170.3 27 181.5 27 195v6.4A32.5 32.5 0 0 0 8 231v248.7A32.5 32.5 0 0 0 40.4 512h407.1a32.5 32.5 0 0 0 32.4-32.4v-69h7.7c9 0 16.4-7.4 16.4-16.4v-77.9c0-9-7.4-16.4-16.4-16.4zm-46.1-115c5.6 0 10 4.5 10 10.1v3.7l-4-.2h-31l9.3-13.6h15.7zM282 18.5a9 9 0 0 1 12.6-2.3l148.5 101.2a9 9 0 0 1 2.4 12.5l-46.7 68.6h-11.2l22.9-33.6a17 17 0 0 0 .8-18.1c-4.3-7.6-6-16.6-5-25.2a17 17 0 0 0-7.3-16.4l-77-52.4a17 17 0 0 0-18-1 40.8 40.8 0 0 1-25.1 4.7c-6.4-.9-13 2-16.6 7.4l-91.7 134.6h-11.2l122.6-180zm3.2 124a60.2 60.2 0 0 0-60 56h-37L274.6 72a2.6 2.6 0 0 1 2.4-1.1c11.8 1.6 24-.6 34.3-6.3.8-.5 1.9-.4 2.7.1l77 52.5c.8.5 1.2 1.5 1.1 2.4a55.5 55.5 0 0 0 6.7 34.2c.4.9.4 2-.2 2.7L370 198.5h-24.7a60.2 60.2 0 0 0-60-56zm45.4 56H240a45.6 45.6 0 0 1 90.7 0zM41.5 195c0-5.6 4.6-10.1 10.1-10.1H69l-1.4 13.6h-26V195zm-18.9 35.9c0-9.9 8-17.9 17.8-17.9h407.1c9.8 0 17.8 8 17.8 17.9V251H22.6V231zm442.7 248.7c0 9.8-8 17.8-17.8 17.8h-407c-9.9 0-17.9-8-17.9-17.8v-20.3h39.3a7.3 7.3 0 1 0 0-14.6H22.6v-179h442.7V300H396a55.4 55.4 0 0 0-49.8 31.2l-.1.2-.2.4a55 55 0 0 0-2.8 7v.1a55.2 55.2 0 0 0 52.9 71.8h69.3v34.1H108.7a7.3 7.3 0 1 0 0 14.6h356.6v20.3zm24.1-85.4c0 1-.8 1.8-1.8 1.8H396a40.8 40.8 0 0 1 0-81.5h91.6c1 0 1.8.8 1.8 1.8v77.9z"/>
    <path d="M397.7 325.6a29.6 29.6 0 1 0 0 59.3 29.6 29.6 0 0 0 0-59.3zm0 44.6a15 15 0 1 1 0-30 15 15 0 0 1 0 30z"/>
  </g>
</svg>