<svg xmlns="http://www.w3.org/2000/svg" viewBox="0 0 480 480">
  <g fill="#fff">
    <path d="M271.6 216.2a40 40 0 1 0-63.3 0 52.3 52.3 0 0 0-48.3 52V328a8 8 0 0 0 8 8h24v104a8 8 0 0 0 8 8h80a8 8 0 0 0 8-8V336h24a8 8 0 0 0 8-8v-59.7c0-27.4-21.1-50-48.4-52.1zM240 168a24 24 0 1 1 0 48 24 24 0 0 1 0-48zm64 152h-16v-64h-16v176h-24v-96h-16v96h-24V256h-16v64h-16v-51.7c0-20 16.3-36.3 36.3-36.3h55.4c20 0 36.3 16.3 36.3 36.3V320z"/>
    <path d="M245.1 1.8a8 8 0 0 0-10.2 0l-232 192 10.2 12.4 90.9-75.3V472a8 8 0 0 0 8 8h256a8 8 0 0 0 8-8V131l90.9 75.2 10.2-12.4-232-192zM240 18.4L353.1 112H127L240 18.4zM360 464H120V128h240v336z"/>
  </g>
</svg>