<svg xmlns="http://www.w3.org/2000/svg" viewBox="0 0 512 512">
  <path d="M482.7 485.8l-22.6-132.6a37.7 37.7 0 0 0-26.5-30l-61-18.4a68 68 0 0 0-47.4-59.2 118.6 118.6 0 0 0 29.7-59.1h4.7c12.3 0 22.3-10 22.3-22.2v-11.4c0-8.2-4.7-15.6-11.6-19.4V106a7.5 7.5 0 0 0-15 0v30.8a46.2 46.2 0 0 0-13.4 4.6V80.9a30.3 30.3 0 0 0-30.3-30.2H291c-7.1 0-14 2.5-19.6 7l-2 1.6a21 21 0 0 1-26.6 0l-2-1.6c-5.5-4.5-12.5-7-19.6-7h-20.7A30.3 30.3 0 0 0 170 80.9v60.5a38.5 38.5 0 0 0-3.5-1.7c-3.5-1.5-7-2.4-10-2.9V59a44 44 0 0 1 44.1-44h110.6a44 44 0 0 1 44 44v11.8a7.5 7.5 0 1 0 15 0V59a59 59 0 0 0-59-59H200.7a59 59 0 0 0-59 59v74.5a22.4 22.4 0 0 0-11.5 19.4v11.4c0 12.3 10 22.2 22.2 22.2h4.7a118.6 118.6 0 0 0 29.6 59.1c-26 8.3-44.9 31.6-47.2 59.2l-61.1 18.4a37.7 37.7 0 0 0-26.5 30L42.7 407a7.5 7.5 0 1 0 14.8 2.6l9.2-53.9a22.8 22.8 0 0 1 16-18.1l56.5-17v14.8a37.5 37.5 0 0 0-30.7 33.8l-5.5 70a19.1 19.1 0 0 0 19 20.6h9.4a7.5 7.5 0 1 0 0-15H122a4 4 0 0 1-4-4.4l5.4-70a22.7 22.7 0 0 1 22.6-20.6l1.2-.1h.2a22.5 22.5 0 0 1 22.7 20.6l5.5 70.1a4 4 0 0 1-4 4.4h-9.4a7.5 7.5 0 1 0 0 15h9.3a19.1 19.1 0 0 0 19-20.5l-5.5-70.1a37.1 37.1 0 0 0-30.8-33.8V316l25.8-7.8c2.3 5 7 15.6 16.2 38.7A6252 6252 0 0 1 249 484a7.5 7.5 0 0 0 14 0 9730.6 9730.6 0 0 1 52.8-137.1c9.2-23 13.9-33.7 16.2-38.7l25.8 7.8v44.3a38.9 38.9 0 1 0 15 0v-39.8l56.5 17a22.8 22.8 0 0 1 16 18.2l22.6 132.6a7.3 7.3 0 0 1-7.3 8.7H51.4c-2.2 0-4.3-1-5.7-2.6a7.3 7.3 0 0 1-1.6-6l7.4-43.9a7.5 7.5 0 1 0-14.8-2.5l-7.4 43.8a22.4 22.4 0 0 0 22 26.2h409.3a22.4 22.4 0 0 0 22.1-26.2zM355.4 152c4-1 7.2-1 7.3-1 1.3 0 2.5-.3 3.6-.9.4.9.6 1.8.6 2.7v11.4c0 4-3.3 7.2-7.3 7.2h-4.2v-19.4zm-198.8 19.4h-4.2c-4 0-7.3-3.2-7.3-7.2v-11.4c0-1 .2-1.8.6-2.7 1 .6 2.3 1 3.6 1 .1 0 3.3-.1 7.3.9v19.4zm15 8.4v-19.7a10.5 10.5 0 0 0 13.5-10V80.9c0-8.4 6.9-15.2 15.3-15.2H221a16 16 0 0 1 10.1 3.6l2 1.6a36 36 0 0 0 45.5 0l2-1.6a16 16 0 0 1 10.2-3.6h20.7c8.4 0 15.3 6.8 15.3 15.2v69.3a10.5 10.5 0 0 0 13.5 10V180c0 11-7.5 32.2-21.6 50a98.9 98.9 0 0 1-18.6 18.4 73.1 73.1 0 0 1-89-.5 99 99 0 0 1-18-17.8c-14-17.9-21.6-39.1-21.6-50zM305 301.1L256 337.8 206.9 301a35.6 35.6 0 0 0 7.6-21.3v-12c11.5 6.2 25.3 10.4 41.5 10.4s30-4.2 41.5-10.4v12c0 7.1 2.7 15 7.6 21.3zm-110.7-8.4a20.5 20.5 0 0 0-13.2-.5l-26 7.8a53.3 53.3 0 0 1 44.3-42v21.8c0 4.7-2.1 9.6-5.1 12.9zm20.3 60.2v-.1a2233.7 2233.7 0 0 0-1.4-3.4l-1-2.7-.1-.2-3.2-8-.2-.6-1-2.2-.2-.7-.9-2.1-.2-.6a3020.4 3020.4 0 0 0-2.4-5.9l-.6-1.4-.2-.5a119.3 119.3 0 0 1-2.6-6.4l-1.3-3-.6-1.3 42.3 31.5-17.7 7.5-7.4 3.2-1.3-3.1zm18 45.9a7797.4 7797.4 0 0 0-11.3-28.8l2.8-1.2 11.5 13.3-3 16.7zm23.4 61a11965.9 11965.9 0 0 0-13.2-34l7-38.4h12.2l7 38.3-13 34zm8.8-87.4H247l-8.4-9.8 17.3-7.3 17.3 7.3-8.4 9.8zm19 14.8l-4.5 11.6-3-16.7 11.4-13.3 2.8 1.2-6.7 17.2zm28.7-72l-1.2 2.7-.1.4-1.2 2.8-.1.3-1 2.6c-.2.1-.2.3-.3.5l-.2.6-.5 1.2-.7 1.5-.2.5-1.6 4-.2.6-.9 2-.3.9-.8 2.1-.3.6-3.2 8v.2l-1.1 2.7-.2.5-1.2 2.9-1.2 3.2-7.4-3.1h-.1l-17.7-7.6 42.3-31.5-.6 1.4zm18.2-23c-4.4-1.3-9-1-13.2.5-3-3.3-5-8.2-5-12.9V258a52.8 52.8 0 0 1 44.1 42l-25.9-7.8zM389 398.4a23.8 23.8 0 1 1-47.7 0 23.8 23.8 0 0 1 47.7 0z" fill="#fff"/>
</svg>