<svg xmlns="http://www.w3.org/2000/svg" viewBox="0 0 292 292">
  <g fill-rule="nonzero" fill="#fff">
    <path d="M263 19.1c-33 0-65.1-6.2-95.7-18.4l-1.7-.7-1.8.7a256.4 256.4 0 0 1-95.6 18.4H57.8v98.4H34.3a14 14 0 0 0-14 14.1v79.7a14 14 0 0 0 14 14h42.2c11.1 17.7 26.4 32.2 44.7 42.2l44.4 24.1 44.3-24.1a121.7 121.7 0 0 0 63.5-107V19.1zM29.5 211.3v-79.7c0-2.6 2.1-4.7 4.7-4.7h42.2c2.6 0 4.7 2.1 4.7 4.7v79.7c0 2.6-2.1 4.7-4.7 4.7H34.3a4.7 4.7 0 0 1-4.7-4.7zm61-70.4a29.8 29.8 0 0 0 28-29.7V87.1a11.7 11.7 0 0 1 23.5 0v29.5a15 15 0 0 0 15 15h34.4c9 0 16.3 7.3 16.3 16.2v52c0 9-7.3 16.2-16.3 16.2h-69a11 11 0 0 1-9.3-5 20.4 20.4 0 0 0-17-9h-5.6zM264 160.5c0 41.2-22.4 79-58.6 98.7L165.6 281l-39.9-21.8c-16.3-8.9-30-21.7-40.2-37.2a14 14 0 0 0 5-9.8c9.4 16.3 23 29.7 39.7 38.8l35.4 19.3 35.3-19.3a103 103 0 0 0 53.7-90.5v-71h-9.3v71a93.6 93.6 0 0 1-48.9 82.3l-30.8 16.8-30.9-16.8a93.3 93.3 0 0 1-32.6-29.7 11 11 0 0 1 3.3 3.1 20.4 20.4 0 0 0 17 9.2h69.1a25.6 25.6 0 0 0 25.6-25.6v-52a25.6 25.6 0 0 0-25.6-25.6h-34.3a5.7 5.7 0 0 1-5.7-5.6V87a21.1 21.1 0 0 0-42.2 0v24.1c0 10.7-8.3 19.4-18.7 20.2-.1-4-1.9-7.7-4.7-10.2V46.7c27.2-1.7 54-7.2 79.7-16.6a284.3 284.3 0 0 0 79.7 16.6v5.2h9.3V37.8l-4.4-.2a275 275 0 0 1-83-16.9l-1.6-.6-1.7.6a275.1 275.1 0 0 1-83 16.9l-4.4.2v79.7h-9.4v-89h1.1c33.5 0 66.2-6.2 97.4-18.4a265.6 265.6 0 0 0 97.3 18.4h1.1v132z"/>
    <path d="M245.3 70.7h9.4v9.4h-9.4zM39 197.2h32.8v9.4H39z"/>
  </g>
</svg>