<?xml version="1.0" standalone="no"?>
<!DOCTYPE svg PUBLIC "-//W3C//DTD SVG 20010904//EN"
 "http://www.w3.org/TR/2001/REC-SVG-20010904/DTD/svg10.dtd">
<svg version="1.0" xmlns="http://www.w3.org/2000/svg"
 width="204.000000pt" height="204.000000pt" viewBox="0 0 204.000000 204.000000"
 preserveAspectRatio="xMidYMid meet">
<metadata>
Created by potrace 1.11, written by Peter Selinger 2001-2013
</metadata>
<g transform="translate(0.000000,204.000000) scale(0.100000,-0.100000)"
fill="#000000" stroke="none">
<path d="M595 1735 c-44 -24 -65 -46 -81 -84 -19 -46 -18 -87 6 -135 49 -101
180 -119 259 -35 91 95 28 255 -106 266 -32 3 -58 -1 -78 -12z"/>
<path d="M1315 1738 c-121 -44 -140 -201 -33 -281 101 -75 249 3 250 132 0
108 -114 187 -217 149z"/>
<path d="M690 1365 c-228 -47 -369 -247 -336 -475 14 -98 63 -219 125 -305 81
-114 252 -267 314 -281 31 -6 84 13 93 36 24 57 4 102 -63 144 -107 69 -223
211 -270 334 -34 89 -36 189 -5 249 55 106 202 161 312 117 22 -9 40 -18 40
-20 0 -3 -9 -22 -20 -43 -45 -89 -72 -268 -47 -308 5 -7 6 -13 2 -13 -3 0 3
-17 14 -39 47 -91 145 -129 236 -92 128 52 159 243 72 435 l-26 56 23 15 c59
39 174 27 256 -25 62 -40 81 -75 96 -181 8 -52 -22 -158 -64 -236 -43 -77
-153 -195 -232 -248 -79 -53 -93 -88 -60 -142 25 -41 73 -52 121 -27 19 9 36
20 39 23 3 3 27 24 54 45 70 57 132 122 181 191 173 244 184 501 29 663 -100
103 -264 159 -386 130 -24 -5 -47 -11 -53 -12 -20 -5 -81 -34 -99 -49 -18 -13
-23 -12 -55 9 -80 52 -188 71 -291 49z"/>
</g>
</svg>
